<?xml version="1.0" encoding="UTF-8"?>
<svg width="40px" height="208px" viewBox="0 0 40 208" version="1.1" xmlns="http://www.w3.org/2000/svg" xmlns:xlink="http://www.w3.org/1999/xlink">
    <!-- Generator: Sketch 51.2 (57519) - http://www.bohemiancoding.com/sketch -->
    <title>social</title>
    <desc>Created with Sketch.</desc>
    <defs></defs>
    <g id="Symbols" stroke="none" stroke-width="1" fill="none" fill-rule="evenodd">
        <g id="Footer" transform="translate(-1367.000000, -75.000000)">
            <g id="footer">
                <g id="social" transform="translate(1367.000000, 75.000000)">
                    <g id="twitter" transform="translate(0.000000, 168.000000)">
                        <g id="Group-3" fill="#1A237E">
                            <path d="M39.99984,20.00004 C39.99984,31.04564 31.04544,40.00004 19.99984,40.00004 C8.95424,40.00004 -0.00016,31.04564 -0.00016,20.00004 C-0.00016,8.95444 8.95424,3.99999999e-05 19.99984,3.99999999e-05 C31.04544,3.99999999e-05 39.99984,8.95444 39.99984,20.00004" id="Fill-1"></path>
                        </g>
                        <path d="M31.99984,13.301 C31.20544,13.6534 30.35144,13.8918 29.45504,13.999 C30.36984,13.4502 31.07264,12.5818 31.40344,11.547 C30.54704,12.055 29.59864,12.4238 28.58944,12.6222 C27.78064,11.761 26.62904,11.223 25.35464,11.223 C22.90744,11.223 20.92304,13.207 20.92304,15.6542 C20.92304,16.0018 20.96224,16.3398 21.03784,16.6642 C17.35504,16.4794 14.08944,14.7154 11.90384,12.0342 C11.52264,12.6886 11.30384,13.4498 11.30384,14.2618 C11.30384,15.7994 12.08624,17.1558 13.27504,17.9506 C12.54864,17.9274 11.86544,17.7282 11.26824,17.3962 C11.26744,17.415 11.26744,17.4334 11.26744,17.4518 C11.26744,19.599 12.79504,21.3902 14.82264,21.7974 C14.45064,21.8986 14.05904,21.9526 13.65504,21.9526 C13.36944,21.9526 13.09144,21.925 12.82104,21.8734 C13.38504,23.6338 15.02184,24.915 16.96064,24.951 C15.44384,26.1394 13.53344,26.8478 11.45744,26.8478 C11.09944,26.8478 10.74664,26.8266 10.39984,26.7858 C12.36104,28.043 14.69064,28.777 17.19304,28.777 C25.34424,28.777 29.80184,22.0242 29.80184,16.1682 C29.80184,15.9762 29.79744,15.785 29.78904,15.595 C30.65464,14.9702 31.40624,14.1898 31.99984,13.301" id="Fill-4" fill="#FFFFFF"></path>
                    </g>
                    <g id="you-tube" transform="translate(0.000000, 112.000000)">
                        <g id="Group-3" fill="#1A237E">
                            <path d="M40,20 C40,31.0456 31.0456,40 20,40 C8.9544,40 0,31.0456 0,20 C0,8.9544 8.9544,0 20,0 C31.0456,0 40,8.9544 40,20" id="Fill-1"></path>
                        </g>
                        <path d="M23.7492,19.5596 L23.5716,19.6524 L23.0208,19.9424 L23.0192,19.9412 L17.7924,22.6728 L17.7924,16.4664 L17.7964,16.4684 L17.7924,16.466 L23.7492,19.5592 L23.7484,19.5596 L23.7492,19.5596 Z M25.3256,12 L14.7744,12 C9,12 9,13.6452 9,17.6908 L9,21.6448 C9,25.4924 9.818,27.3352 14.7744,27.3352 L25.3256,27.3352 C29.8032,27.3352 31.1004,26.258 31.1004,21.6448 L31.1004,17.6908 C31.1004,13.4324 30.882,12 25.3256,12 L25.3256,12 Z" id="Fill-4" fill="#FFFFFF"></path>
                    </g>
                    <g id="facebook" transform="translate(0.000000, 56.000000)">
                        <g id="Group-3" fill="#1A237E">
                            <path d="M40,20 C40,31.0456 31.0456,40 20,40 C8.9544,40 0,31.0456 0,20 C0,8.9544 8.9544,0 20,0 C31.0456,0 40,8.9544 40,20" id="Fill-1"></path>
                        </g>
                        <path d="M21.5452,32.3508 L21.5452,20.7872 L25.4268,20.7872 L26.008,16.2804 L21.5452,16.2804 L21.5452,13.4032 C21.5452,12.0984 21.9076,11.2092 23.7788,11.2092 L26.1652,11.2084 L26.1652,7.1776 C25.7524,7.1228 24.336,7 22.6876,7 C19.2472,7 16.8916,9.1004 16.8916,12.9572 L16.8916,16.2804 L13,16.2804 L13,20.7872 L16.8916,20.7872 L16.8916,32.3508 L21.5452,32.3508 Z" id="Fill-4" fill="#FFFFFF"></path>
                    </g>
                    <g id="linkedin">
                        <g id="Group-3" fill="#1A237E">
                            <path d="M40,20 C40,31.0456 31.0456,40 20,40 C8.9544,40 0,31.0456 0,20 C0,8.9544 8.9544,0 20,0 C31.0456,0 40,8.9544 40,20" id="Fill-1"></path>
                        </g>
                        <path d="M13.3288,9 C14.6124,9 15.6556,10.0432 15.6556,11.3276 C15.6556,12.6128 14.6124,13.6564 13.3288,13.6564 C12.0416,13.6564 11,12.6128 11,11.3276 C11,10.0432 12.0416,9 13.3288,9 L13.3288,9 Z M11.32,28.3424 L15.336,28.3424 L15.336,15.4224 L11.32,15.4224 L11.32,28.3424 Z" id="Fill-4" fill="#FFFFFF"></path>
                        <path d="M18,15.3212 L21.8516,15.3212 L21.8516,17.0868 L21.9052,17.0868 C22.4416,16.0708 23.7512,15 25.7048,15 C29.7708,15 30.5216,17.676 30.5216,21.1544 L30.5216,28.2412 L26.5088,28.2412 L26.5088,21.958 C26.5088,20.46 26.4812,18.5324 24.4224,18.5324 C22.3328,18.5324 22.012,20.1648 22.012,21.8496 L22.012,28.2412 L18,28.2412 L18,15.3212 Z" id="Fill-6" fill="#FFFFFF"></path>
                    </g>
                </g>
            </g>
        </g>
    </g>
</svg>